<?xml version="1.0" encoding="utf-8"?>
<!-- Generator: Adobe Illustrator 19.2.0, SVG Export Plug-In . SVG Version: 6.00 Build 0)  -->
<svg version="1.1" id="Layer_1" xmlns="http://www.w3.org/2000/svg" xmlns:xlink="http://www.w3.org/1999/xlink" x="0px" y="0px"
	 viewBox="0 0 228.7 39.1" style="enable-background:new 0 0 228.7 39.1;" xml:space="preserve">
<style type="text/css">
	.st0{fill:#FED136;}
	.st1{font-family:'Cookie-Regular';}
	.st2{font-size:53px;}
</style>
<path class="st0" d="M25.2-42.3c0.1,0.4,0.1,0.7,0.2,0.8c0,0.2,0.1,0.4,0,0.6c0,0.8-0.2,1.5-0.5,2.2c-0.3,0.6-0.8,1.1-1.4,1.4
	c-0.5-0.6-1.1-1.2-1.7-1.6c-0.7-0.5-1.5-0.8-2.2-1.1c-0.8-0.3-1.7-0.5-2.5-0.7c-0.8-0.1-1.7-0.2-2.6-0.2c-0.8,0-1.6,0.1-2.3,0.2
	c-0.7,0.1-1.3,0.3-1.9,0.5c-0.5,0.2-0.9,0.5-1.3,0.8c-0.3,0.3-0.5,0.7-0.5,1.1c0.1,0.6,0.5,1.2,1,1.6c0.6,0.6,1.3,1.1,2.1,1.6
	c0.8,0.5,1.7,1,2.7,1.5s2,1,3,1.4c1.2,0.6,2.2,1.1,3.1,1.6c0.8,0.4,1.5,1,2.2,1.6c0.6,0.6,1,1.3,1.3,2c0.3,0.8,0.4,1.7,0.3,2.6
	c0,1.2-0.2,2.3-0.6,3.4c-0.4,1-1,2-1.8,2.7c-0.8,0.8-1.7,1.4-2.8,1.8c-1.2,0.4-2.4,0.7-3.7,0.7c-1.4,0-2.8-0.2-4.2-0.6
	c-1.5-0.4-2.9-0.9-4.3-1.7c-1.2-0.6-2.4-1.4-3.3-2.4c-0.8-0.7-1.3-1.8-1.4-2.9c0-0.6,0.2-1.2,0.4-1.8c0.3-0.9,0.8-1.6,1.5-2.3
	c0.2,0.9,0.5,1.8,1.1,2.5c0.8,1.1,1.9,2,3.1,2.7c1.3,0.7,2.6,1.3,4,1.7c1.3,0.3,2.6,0.5,3.9,0.5c1.1,0,2.2-0.1,3.2-0.5
	c0.7-0.3,1.4-0.7,1.9-1.2c0.4-0.4,0.8-0.9,1-1.4c0.2-0.4,0.3-0.7,0.3-1.1c0-0.5-0.3-1-0.6-1.4c-0.5-0.5-1.1-0.9-1.7-1.3
	c-0.7-0.4-1.5-0.8-2.4-1.3S16-29,15-29.4c-1.5-0.7-2.8-1.3-3.8-1.9c-0.9-0.5-1.8-1.1-2.6-1.8c-0.6-0.5-1.2-1.2-1.5-1.9
	c-0.3-0.7-0.5-1.5-0.5-2.3c0-1.3,0.4-2.7,1.2-3.8c0.9-1.2,2.1-2.2,3.5-2.7c0.8-0.3,1.6-0.6,2.4-0.7c0.8-0.1,1.7-0.2,2.5-0.2
	c1.5,0,3.1,0.2,4.6,0.6C22.3-43.5,23.8-42.9,25.2-42.3z"/>
<path class="st0" d="M28.1-32c-0.2-0.3-0.3-0.6-0.3-0.9c-0.1-0.4-0.1-0.8-0.1-1.2c0.6,0.1,1.2,0.1,1.8,0.1h1.6
	c0.4-0.7,0.7-1.4,1.1-2.1c0.4-0.7,0.8-1.3,1.2-1.9c0.3-0.5,0.7-1,1.1-1.5c0.2-0.3,0.5-0.5,0.8-0.8c0.3,0,0.6,0,0.9,0.1
	c0.4,0.1,0.7,0.2,1.1,0.3c0.4,0.1,0.7,0.3,1,0.4c0.2,0.1,0.5,0.2,0.6,0.4c-0.7,0.9-1.3,1.7-1.8,2.5c-0.5,0.8-1.1,1.6-1.7,2.6h1.4
	c0.5,0,1,0,1.5-0.1c0.1,0.1,0.2,0.3,0.3,0.4c0.1,0.2,0.1,0.4,0.1,0.5c-1.4,0.5-2.8,0.7-4.2,0.7c-0.6,1.1-1.1,2.3-1.6,3.4
	s-0.9,2.2-1.2,3.2c-0.3,1-0.5,1.9-0.7,2.9c-0.2,0.8-0.3,1.7-0.3,2.5c0,1,0.4,1.6,1.2,1.7c0.7-0.1,1.4-0.3,2-0.5
	c0.6-0.2,1.2-0.6,1.7-1c0.1,0.2,0.2,0.3,0.2,0.5c-0.2,0.3-0.4,0.5-0.7,0.7c-0.4,0.3-0.7,0.6-1.1,0.8c-0.4,0.3-0.8,0.5-1.2,0.7
	c-0.3,0.1-0.6,0.3-0.9,0.3c-0.6,0-1.2-0.1-1.8-0.3c-0.6-0.2-1.1-0.5-1.6-0.9c-0.5-0.3-0.9-0.7-1.2-1.2c-0.3-0.4-0.4-0.8-0.5-1.3
	c0-0.7,0.1-1.4,0.2-2.1c0.1-0.9,0.4-1.8,0.6-2.8s0.6-2.1,1-3.2s0.8-2.2,1.2-3.3L28.1-32z"/>
<path class="st0" d="M50.6-32.7c0.3,0,0.6,0,0.8,0.1c0.3,0.1,0.6,0.2,0.9,0.3c0.2,0.1,0.4,0.2,0.7,0.4c0.2,0.1,0.3,0.3,0.3,0.4
	c-0.5,1-0.9,2-1.3,3s-0.7,2-1,2.9c-0.3,0.8-0.5,1.7-0.7,2.6c-0.1,0.7-0.2,1.4-0.2,2.1c0,0.6,0.1,1.1,0.2,1.6
	c0.1,0.4,0.4,0.7,0.7,0.9c-0.3,0.2-0.7,0.4-1.1,0.5c-0.4,0.1-0.8,0.2-1.2,0.2c-1.3,0-1.9-0.9-1.9-2.6c0.1-1.9,0.6-3.8,1.4-5.5
	c-0.5,1-1,2-1.6,3c-0.6,0.9-1.2,1.7-1.9,2.5c-0.6,0.7-1.2,1.3-2,1.9c-0.5,0.4-1.1,0.7-1.8,0.8c-0.9,0-1.7-0.5-2.1-1.2
	c-0.6-0.9-0.9-1.9-0.8-3c0-1.4,0.3-2.9,0.8-4.2c0.6-1.4,1.3-2.8,2.2-4.1c0.8-1.2,1.8-2.2,2.9-3.1c0.8-0.8,1.9-1.2,3-1.3
	c0.3,0.1,0.6,0.2,0.8,0.4c0.3,0.2,0.6,0.5,0.8,0.7c0.3,0.3,0.5,0.6,0.7,0.9c0.2,0.2,0.3,0.5,0.3,0.8c-1.1,0.2-2.1,0.6-2.9,1.3
	c-1,0.8-2,1.8-2.7,2.8c-0.8,1.1-1.5,2.3-2,3.5c-0.5,1.1-0.8,2.3-0.8,3.5c0,0.4,0.2,0.7,0.5,0.8c0.9-0.3,1.8-0.9,2.4-1.8
	c1.2-1.5,2.3-3.1,3.3-4.8l0.8-1.4c0.3-0.5,0.6-1.1,0.9-1.6l0.9-1.7C50.1-31.6,50.4-32.2,50.6-32.7z"/>
<path class="st0" d="M54.2-19.1c0.1-0.7,0.3-1.6,0.6-2.7s0.6-2.3,1-3.6s0.8-2.5,1.3-3.8s0.9-2.4,1.3-3.4c0.2-0.6,0.5-1.2,0.8-1.7
	c0.2-0.4,0.5-0.7,0.8-1c0.3,0.1,0.7,0.1,1,0.2c0.3,0.1,0.7,0.3,1,0.4c0.3,0.2,0.6,0.3,0.9,0.5c0.2,0.1,0.4,0.3,0.6,0.5
	c-0.7,0.8-1.2,1.7-1.7,2.6c-0.5,1.2-1,2.4-1.4,3.6c1.3-1.1,2.4-2.2,3.4-3.3c1-1.1,1.9-2.2,2.7-3.5c0.2-0.1,0.5-0.2,0.7-0.2
	c0.3,0,0.7,0,1,0.2c0.3,0.1,0.5,0.2,0.6,0.4c-0.4,1.1-0.6,2.2-0.6,3.4c-0.1,0.8,0.1,1.6,0.5,2.3c-0.1,0.3-0.3,0.6-0.5,0.8
	c-0.3,0.4-0.6,0.8-1,1.1c-0.7-0.3-1.2-0.8-1.7-1.3c-0.5-0.6-0.9-1.2-1.1-1.9c-1,0.7-1.9,1.5-2.8,2.3c-0.8,0.7-1.4,1.6-2,2.5
	c-0.6,1-1.1,2-1.4,3.1c-0.4,1.2-0.8,2.6-1.1,4.2c-0.3,0-0.5-0.1-0.8-0.2c-0.3-0.1-0.6-0.3-0.9-0.5c-0.3-0.2-0.5-0.4-0.8-0.6
	C54.5-18.7,54.3-18.9,54.2-19.1z"/>
<path class="st0" d="M71.4-32c-0.2-0.3-0.3-0.6-0.3-0.9C71-33.3,71-33.7,71-34.1c0.6,0.1,1.2,0.1,1.8,0.1h1.6
	c0.3-0.7,0.7-1.4,1.2-2.1c0.4-0.7,0.8-1.3,1.2-1.9c0.3-0.5,0.7-1,1.1-1.5c0.2-0.3,0.5-0.6,0.8-0.8c0.3,0,0.6,0,0.9,0.1
	c0.4,0.1,0.7,0.2,1.1,0.3c0.4,0.1,0.7,0.3,1,0.4c0.2,0.1,0.5,0.2,0.6,0.4c-0.7,0.9-1.3,1.7-1.8,2.5c-0.5,0.8-1.1,1.6-1.7,2.6h1.4
	c0.5,0,1,0,1.5-0.1c0.1,0.1,0.2,0.3,0.3,0.4C82-33.2,82-33,82-32.9c-1.4,0.5-2.8,0.7-4.2,0.7c-0.6,1.1-1.1,2.3-1.6,3.4
	s-0.8,2.2-1.1,3.3c-0.3,1-0.6,1.9-0.8,2.9c-0.2,0.8-0.2,1.7-0.3,2.5c0,1,0.4,1.6,1.2,1.7c0.7-0.1,1.4-0.3,2-0.5
	c0.6-0.2,1.2-0.6,1.7-1c0.1,0.2,0.2,0.3,0.2,0.5c-0.2,0.3-0.5,0.5-0.7,0.7c-0.4,0.3-0.7,0.6-1.1,0.8c-0.4,0.3-0.8,0.5-1.2,0.7
	c-0.3,0.1-0.6,0.2-0.8,0.3c-0.6,0-1.2-0.1-1.8-0.3C73-17.4,72.5-17.7,72-18c-0.5-0.3-0.9-0.7-1.2-1.2c-0.3-0.4-0.5-0.8-0.5-1.3
	c0-0.7,0.1-1.4,0.2-2.1c0.2-0.9,0.4-1.8,0.7-2.8s0.6-2.1,1-3.2s0.8-2.2,1.2-3.3L71.4-32z"/>
<path class="st0" d="M114.7-37.9c0,1.4-0.4,2.8-1.2,3.9c-0.9,1.2-2,2.2-3.3,2.8c0.9,0.6,1.6,1.3,2.1,2.2c0.5,0.9,0.8,1.9,0.8,2.9
	c0,1.3-0.4,2.6-1.2,3.8c-0.8,1.3-1.9,2.4-3.1,3.3c-1.3,1-2.8,1.8-4.3,2.3c-1.6,0.6-3.3,0.9-5,0.9c-1.7,0-3.3-0.3-4.8-1
	c-1.3-0.7-2.5-1.7-3.2-3c0.2-0.7,0.5-1.6,0.9-2.6c0.4-1,0.8-2.2,1.3-3.3s1-2.3,1.4-3.5s0.9-2.2,1.4-3.1c0.9-2,1.7-3.7,2.4-5
	c0.6-1.1,1.3-2.2,2-3.1c-1.2,0.4-2.4,0.8-3.5,1.4c-0.8,0.4-1.6,0.9-2.3,1.5c-0.2-0.2-0.5-0.4-0.7-0.6c-0.2-0.3-0.4-0.6-0.6-0.9
	c-0.2-0.3-0.4-0.7-0.5-1c-0.1-0.3-0.2-0.6-0.2-1c0.7-0.5,1.6-0.9,2.4-1.2c1-0.4,2.1-0.7,3.2-1c1.2-0.3,2.4-0.5,3.6-0.7
	c1.2-0.2,2.3-0.2,3.5-0.2c2.3-0.1,4.7,0.5,6.7,1.7C113.9-41.6,114.8-39.8,114.7-37.9z M101.3-29.4c-0.5-0.2-0.9-0.6-1.2-1
	c-0.6,1.2-1.1,2.4-1.5,3.5s-0.9,2.2-1.3,3.2s-0.7,1.9-0.9,2.6c-0.2,0.5-0.3,1.1-0.4,1.6c0.4,0.2,0.8,0.3,1.2,0.4
	c0.6,0.1,1.1,0.2,1.7,0.2c1.6,0,3.1-0.2,4.6-0.7c1.4-0.4,2.7-1.1,3.9-1.9c1-0.7,1.9-1.6,2.7-2.6c0.6-0.9,1-2,1-3.1
	c0.1-1.4-0.7-2.8-2-3.4c-2,0.8-4.1,1.2-6.2,1.1h-0.8C101.7-29.4,101.5-29.4,101.3-29.4z M108.1-41.7c-0.5,0-1,0-1.6,0.1
	c-0.6,0.1-1.1,0.1-1.8,0.3c0.1,0.1,0.2,0.2,0.2,0.3c0,0.1,0.1,0.2,0.2,0.3c-0.3,0.4-0.5,0.8-0.8,1.2c-0.3,0.5-0.7,1.2-1,1.9
	c-0.3,0.7-0.8,1.5-1.2,2.4c-0.4,0.9-0.8,1.8-1.2,2.7c0.5-0.1,1-0.2,1.5-0.2c0.6-0.1,1.1-0.1,1.7-0.1c0.3,0,0.6,0,0.9,0
	s0.6,0.1,0.9,0.1c1-0.2,2.1-0.4,3.1-0.8c0.8-0.3,1.6-0.8,2.3-1.3c0.6-0.4,1.1-1,1.5-1.6c0.3-0.6,0.5-1.2,0.5-1.9
	c0.1-1-0.5-2-1.3-2.6C110.8-41.5,109.5-41.8,108.1-41.7z"/>
<path class="st0" d="M119.7-17.2c-1.3-0.1-2.4-0.7-3.2-1.8c-0.8-1.2-1.3-2.6-1.2-4c0-1,0.1-2,0.4-2.9c0.3-1,0.7-2,1.2-3
	c0.5-1,1.1-1.9,1.8-2.7c0.7-0.8,1.4-1.6,2.3-2.2c1-0.9,2.3-1.4,3.7-1.5c1,0.6,1.7,1.5,2.2,2.5h0.3h0.3c1.3,0,1.9,1.1,1.9,3.3
	c0,1.4-0.2,2.9-0.7,4.2c-0.5,1.3-1.1,2.5-2,3.6c-0.9,1.1-1.9,2-3.1,2.8C122.4-18,121.1-17.5,119.7-17.2z M121.5-28.3
	c-0.4,0.6-0.8,1.2-1.1,1.8c-0.3,0.6-0.7,1.3-0.9,1.9c-0.2,0.6-0.4,1.2-0.6,1.9c-0.1,0.5-0.2,1.1-0.2,1.6c0,0.6,0.1,1.1,0.3,1.6
	c0.2,0.5,0.4,0.8,0.6,0.9c1.1-0.2,2.1-0.7,2.9-1.3c0.9-0.7,1.7-1.5,2.3-2.4c0.7-1,1.2-2.1,1.5-3.3c0.4-1.3,0.6-2.6,0.6-3.9
	c0-0.5,0-1-0.1-1.5c-0.1-0.3-0.2-0.6-0.3-0.9c-1,0.3-2,0.8-2.8,1.5C122.8-29.8,122.1-29.1,121.5-28.3z"/>
<path class="st0" d="M135.3-17.2c-1.3-0.1-2.4-0.7-3.2-1.8c-0.9-1.2-1.3-2.6-1.2-4c0-1,0.1-2,0.4-2.9c0.3-1,0.7-2,1.2-3
	c0.5-1,1.1-1.9,1.8-2.7c0.7-0.8,1.4-1.6,2.3-2.2c1-0.9,2.3-1.4,3.6-1.5c1,0.6,1.7,1.5,2.2,2.5h0.3h0.3c1.2,0,1.9,1.1,1.9,3.3
	c0,1.4-0.2,2.9-0.7,4.2c-0.5,1.3-1.1,2.5-2,3.6c-0.9,1.1-1.9,2-3.1,2.8C138-18,136.7-17.5,135.3-17.2z M137.1-28.3
	c-0.4,0.6-0.8,1.2-1.1,1.8c-0.3,0.6-0.7,1.3-0.9,1.9c-0.2,0.6-0.4,1.2-0.6,1.9c-0.1,0.5-0.2,1.1-0.2,1.6c0,0.6,0.1,1.1,0.3,1.6
	c0.2,0.5,0.4,0.8,0.6,0.9c1.1-0.2,2-0.7,2.9-1.3c0.9-0.7,1.7-1.5,2.3-2.4c0.7-1,1.2-2.1,1.5-3.3c0.4-1.3,0.6-2.6,0.6-3.9
	c0-0.5,0-1-0.1-1.5c-0.1-0.3-0.2-0.6-0.4-0.9c-1,0.3-2,0.8-2.8,1.5C138.4-29.8,137.8-29.1,137.1-28.3z"/>
<path class="st0" d="M148.5-32c-0.2-0.3-0.3-0.6-0.3-0.9c-0.1-0.4-0.1-0.8-0.1-1.2c0.6,0.1,1.2,0.1,1.8,0.1h1.6
	c0.4-0.7,0.7-1.4,1.1-2.1c0.4-0.7,0.8-1.3,1.2-1.9c0.3-0.5,0.7-1,1.1-1.5c0.2-0.3,0.5-0.6,0.8-0.8c0.3,0,0.6,0,0.9,0.1
	c0.4,0.1,0.7,0.2,1.1,0.3c0.4,0.1,0.7,0.3,1,0.4c0.2,0.1,0.5,0.2,0.6,0.4c-0.7,0.9-1.3,1.7-1.8,2.5c-0.5,0.8-1.1,1.6-1.6,2.6h1.4
	c0.5,0,1,0,1.5-0.1c0.1,0.1,0.2,0.3,0.3,0.4c0.1,0.2,0.1,0.4,0.1,0.5c-1.4,0.5-2.8,0.7-4.2,0.7c-0.6,1.1-1.1,2.3-1.6,3.4
	s-0.9,2.2-1.2,3.2c-0.3,1-0.5,1.9-0.7,2.9c-0.2,0.8-0.3,1.7-0.3,2.5c0,1,0.4,1.6,1.2,1.7c0.7-0.1,1.4-0.3,2-0.5
	c0.6-0.2,1.2-0.6,1.7-1c0.1,0.2,0.2,0.3,0.2,0.5c-0.2,0.3-0.5,0.5-0.7,0.7c-0.4,0.3-0.7,0.6-1.1,0.8c-0.4,0.3-0.8,0.5-1.2,0.7
	c-0.3,0.1-0.6,0.2-0.9,0.3c-0.6,0-1.2-0.1-1.8-0.3c-0.6-0.2-1.1-0.5-1.6-0.9c-0.5-0.3-0.9-0.7-1.2-1.2c-0.3-0.4-0.4-0.8-0.5-1.3
	c0-0.7,0.1-1.4,0.2-2.1c0.1-0.9,0.4-1.8,0.6-2.8s0.6-2.1,1-3.2s0.8-2.2,1.2-3.3L148.5-32z"/>
<path class="st0" d="M171-32.6c0,0.5-0.1,0.9-0.2,1.4c-0.1,0.4-0.3,0.9-0.5,1.3c-0.2,0.4-0.4,0.7-0.6,1c-0.1,0.2-0.4,0.4-0.6,0.4
	c-0.3,0-0.4-0.2-0.5-0.5c0-0.1,0-0.2,0.1-0.3c0.1-0.1,0.1-0.3,0.2-0.5s0.1-0.4,0.2-0.6c0.1-0.2,0.1-0.3,0.1-0.5
	c0-0.3-0.1-0.6-0.2-0.8c-0.1-0.2-0.4-0.3-0.6-0.3c-0.9,0-1.7,0.6-2.2,1.8c-0.6,1.7-0.8,3.4-0.7,5.2c0,0.1,0,0.3,0,0.4h2.5
	c0,0.1,0,0.2,0,0.3c0,0.2,0,0.3-0.1,0.5l-1.3,0.3c-0.2,0.1-0.5,0.1-0.7,0.2c-0.1,0-0.2,0.1-0.3,0.2c0,0.1-0.1,0.2-0.1,0.3
	c0,0.2,0,0.4,0,0.6s0,0.4,0,0.7c0.1,1.7-0.5,3.4-1.6,4.8c-1.2,1.2-2.8,2-4.5,2.1c-0.3,0-0.7-0.1-1-0.3c-0.4-0.2-0.7-0.4-1-0.6
	c-0.3-0.3-0.6-0.5-0.8-0.9c-0.2-0.3-0.4-0.6-0.5-1c0-0.9,0.2-1.8,0.6-2.6c0.4-0.8,0.9-1.5,1.5-2.2c0.7-0.6,1.4-1.2,2.3-1.5
	c0.9-0.4,1.9-0.6,2.9-0.6c0-0.6-0.1-1.2-0.2-1.7c-0.1-0.6-0.2-1.1-0.4-1.6s-0.3-1.1-0.4-1.6c-0.1-0.5-0.2-1-0.2-1.5
	c0-0.7,0.1-1.3,0.4-1.9c0.2-0.6,0.6-1.2,1-1.7c0.4-0.5,0.9-1,1.5-1.4c0.5-0.4,1.1-0.6,1.8-0.8c0.4,0.1,0.7,0.4,1,0.6
	c0.5,0.4,0.9,0.7,1.3,1.2c0.4,0.4,0.8,0.8,1.1,1.3C170.6-33.3,170.9-33,171-32.6z M159.4-16.4c0.6-0.2,1.1-0.6,1.6-1
	c1-0.9,1.8-2,2.2-3.3c0.2-0.6,0.3-1.2,0.3-1.9c-0.6,0.1-1.1,0.3-1.6,0.7c-1.1,0.7-2.1,1.7-2.8,2.9c-0.3,0.4-0.5,0.9-0.5,1.4
	C158.7-17.2,158.9-16.7,159.4-16.4z"/>
<path class="st0" d="M173.1-32c-0.2-0.3-0.3-0.6-0.3-0.9c-0.1-0.4-0.1-0.8-0.1-1.2c0.6,0.1,1.2,0.1,1.8,0.1h1.6
	c0.4-0.7,0.7-1.4,1.1-2.1c0.4-0.7,0.8-1.3,1.2-1.9c0.3-0.5,0.7-1,1.1-1.5c0.2-0.3,0.5-0.6,0.8-0.8c0.3,0,0.6,0,0.9,0.1
	c0.4,0.1,0.7,0.2,1.1,0.3c0.4,0.1,0.7,0.3,1,0.4c0.2,0.1,0.5,0.2,0.6,0.4c-0.7,0.9-1.3,1.7-1.8,2.5c-0.5,0.8-1.1,1.6-1.6,2.6h1.4
	c0.5,0,1,0,1.5-0.1c0.1,0.1,0.2,0.3,0.3,0.4c0.1,0.2,0.1,0.4,0.1,0.5c-1.4,0.5-2.8,0.7-4.2,0.7c-0.6,1.1-1.1,2.3-1.6,3.4
	s-0.9,2.2-1.2,3.2c-0.3,1-0.5,1.9-0.7,2.9c-0.2,0.8-0.3,1.7-0.3,2.5c0,1,0.4,1.6,1.2,1.7c0.7-0.1,1.4-0.3,2-0.5
	c0.6-0.2,1.2-0.6,1.7-1c0.1,0.2,0.2,0.3,0.2,0.5c-0.2,0.3-0.5,0.5-0.7,0.7c-0.4,0.3-0.7,0.6-1.1,0.8c-0.4,0.3-0.8,0.5-1.2,0.7
	c-0.3,0.1-0.6,0.2-0.9,0.3c-0.6,0-1.2-0.1-1.8-0.3c-0.6-0.2-1.1-0.5-1.6-0.9c-0.5-0.3-0.9-0.7-1.2-1.2c-0.3-0.4-0.4-0.8-0.5-1.3
	c0-0.7,0.1-1.4,0.2-2.1c0.1-0.9,0.4-1.8,0.6-2.8s0.6-2.1,1-3.2s0.8-2.2,1.2-3.3L173.1-32z"/>
<path class="st0" d="M182.7-19.1c0.1-0.7,0.3-1.6,0.6-2.7s0.6-2.3,1-3.6s0.8-2.5,1.3-3.8s0.9-2.4,1.3-3.4c0.2-0.6,0.5-1.2,0.8-1.7
	c0.2-0.4,0.5-0.7,0.8-1c0.3,0.1,0.7,0.1,1,0.2c0.3,0.1,0.7,0.3,1,0.4c0.3,0.2,0.6,0.3,0.9,0.5c0.2,0.1,0.4,0.3,0.6,0.5
	c-0.7,0.8-1.2,1.7-1.7,2.6c-0.5,1.2-1,2.4-1.4,3.6c1.3-1.1,2.4-2.2,3.4-3.3c1-1.1,1.9-2.2,2.8-3.5c0.2-0.1,0.5-0.2,0.7-0.2
	c0.3,0,0.6,0.1,0.9,0.2c0.3,0.1,0.5,0.2,0.6,0.4c-0.4,1.1-0.6,2.2-0.6,3.4c0,0.8,0.1,1.6,0.5,2.3c-0.1,0.3-0.3,0.6-0.5,0.8
	c-0.3,0.4-0.6,0.8-1,1.1c-1.3-0.7-2.3-1.9-2.8-3.2c-1,0.7-1.9,1.5-2.8,2.3c-0.8,0.7-1.4,1.6-2,2.5c-0.6,1-1.1,2-1.4,3.1
	c-0.4,1.2-0.8,2.6-1.1,4.2c-0.3,0-0.5-0.1-0.8-0.2c-0.6-0.3-1.2-0.6-1.7-1.1C182.9-18.7,182.8-18.9,182.7-19.1z"/>
<path class="st0" d="M210-32.7c0.3,0,0.6,0,0.8,0.1c0.3,0.1,0.6,0.2,0.9,0.3c0.2,0.1,0.4,0.2,0.6,0.4c0.2,0.1,0.3,0.3,0.3,0.4
	c-0.5,1-0.9,2-1.3,3s-0.7,2-1,2.9c-0.3,0.8-0.5,1.7-0.6,2.6c-0.1,0.7-0.2,1.4-0.2,2.1c0,0.6,0.1,1.1,0.2,1.6
	c0.1,0.4,0.4,0.7,0.7,0.9c-0.3,0.2-0.7,0.4-1.1,0.5c-0.4,0.1-0.8,0.2-1.2,0.2c-1.3,0-1.9-0.9-1.9-2.6c0.1-1.9,0.6-3.8,1.3-5.5
	c-0.5,1-1,2-1.6,3c-0.6,0.9-1.2,1.7-1.9,2.5c-0.6,0.7-1.2,1.3-2,1.9c-0.5,0.4-1.1,0.7-1.8,0.8c-0.9,0-1.7-0.5-2.1-1.2
	c-0.6-0.9-0.9-1.9-0.8-3c0-1.4,0.3-2.9,0.9-4.2c0.6-1.4,1.3-2.8,2.2-4.1c0.8-1.2,1.8-2.2,2.9-3.1c0.8-0.8,1.9-1.2,3-1.3
	c0.3,0.1,0.6,0.2,0.8,0.4c0.3,0.2,0.6,0.5,0.9,0.7c0.3,0.3,0.5,0.6,0.7,0.9c0.2,0.2,0.3,0.5,0.3,0.8c-1.1,0.2-2.1,0.6-2.9,1.3
	c-1,0.8-2,1.8-2.7,2.8c-0.8,1.1-1.5,2.3-2,3.5c-0.5,1.1-0.8,2.3-0.8,3.5c0,0.4,0.2,0.7,0.5,0.8c0.9-0.3,1.8-0.9,2.4-1.8
	c1.2-1.5,2.3-3.1,3.3-4.8l0.8-1.4c0.3-0.5,0.6-1.1,0.9-1.6l0.9-1.7C209.5-31.6,209.8-32.2,210-32.7z"/>
<path class="st0" d="M211.9-6.7c-0.3-0.1-0.5-0.5-0.6-1.1c-0.1-0.4-0.2-0.7-0.2-1.1c0-0.4-0.1-0.9-0.1-1.5c0-0.7,0.1-1.3,0.2-2
	c0.2-0.9,0.4-1.8,0.7-2.9s0.6-2.3,1.1-3.5s0.9-2.5,1.4-3.8c0.6-1.6,1.2-3,1.7-4.2s0.9-2.2,1.2-3.1s0.6-1.6,0.8-2.2
	c0.2-0.6,0.4-1,0.5-1.5c0.1-0.3,0.3-0.7,0.4-1c0.2-0.4,0.4-0.8,0.7-1.2c0.2-0.4,0.5-0.8,0.8-1.2c0.2-0.3,0.4-0.6,0.7-0.8
	c0.8,0.1,1.6,0.3,2.3,0.6c0.5,0.2,1,0.5,1.4,0.9c-0.4,0.4-0.8,0.9-1.1,1.4c-0.5,0.7-0.9,1.4-1.2,2.1c-0.4,0.8-0.8,1.6-1.1,2.4
	c-0.3,0.7-0.5,1.4-0.7,2.1c0.3-0.5,0.6-0.9,0.9-1.3c0.4-0.5,1-1.1,1.7-2c0.7-0.8,1.6-1.5,2.5-2.1c0.6-0.4,1.3-0.7,2-0.7
	c0.8,0,1.6,0.2,2.2,0.7c0.6,0.5,0.9,1.2,0.9,1.9c0,1.7-0.3,3.4-0.9,5.1c-0.5,1.6-1.4,3.2-2.4,4.5c-0.4,0.5-0.9,1-1.4,1.4
	c-0.5,0.5-1.1,0.9-1.7,1.2c-0.5,0.3-1.1,0.6-1.7,0.9c-0.5,0.2-1,0.3-1.5,0.3c-0.4,0-0.8-0.1-1.1-0.3c-0.3-0.1-0.5-0.4-0.6-0.7
	c1-0.6,1.9-1.4,2.7-2.3c0.9-1,1.7-2.1,2.4-3.3c0.8-1.3,1.4-2.7,1.9-4.1c0.5-1.4,1-2.9,1.3-4.5c-0.9,0.4-1.7,1-2.4,1.5
	c-0.8,0.6-1.5,1.4-2.2,2.2c-0.9,1-1.5,1.9-2,2.5s-0.9,1.2-1.2,1.6c-0.3,0.4-0.6,0.8-0.8,1.2c-0.2,0.4-0.4,0.9-0.6,1.4
	c-0.3,0.8-0.7,1.8-1.1,3s-0.9,2.6-1.4,4.2s-0.9,3.2-1.4,4.9s-0.9,3.5-1.3,5.2c-0.3-0.1-0.5-0.3-0.7-0.6c-0.2-0.2-0.3-0.4-0.4-0.5
	C212.1-6.6,212-6.7,211.9-6.7z"/>
<text transform="matrix(1 0 0 1 -9.155273e-05 69.4707)" class="st0 st1" style="font-size:39px;">Enlighten the future</text>
<text transform="matrix(1 0 0 1 0.9996 32.9806)" class="st0 st1 st2">Roos de Kok</text>
<text transform="matrix(1 0 0 1 0.9998 119.4024)" class="st0 st1" style="font-size:55px;">Home</text>
</svg>
